<svg width="58" height="58" viewBox="0 0 58 58" fill="none" xmlns="http://www.w3.org/2000/svg">
<path d="M57.2913 53.8752L40.7977 37.3816C43.9926 33.4352 45.9162 28.4207 45.9162 22.9591C45.9162 10.3007 35.6164 0.000930786 22.958 0.000930786C10.2997 0.000930786 0 10.3006 0 22.959C0 35.6174 10.2998 45.9171 22.9581 45.9171C28.4197 45.9171 33.4343 43.9935 37.3806 40.7987L53.8742 57.2923C54.3455 57.7635 54.9641 58.0004 55.5828 58.0004C56.2016 58.0004 56.8202 57.7635 57.2914 57.2923C58.2363 56.3474 58.2363 54.82 57.2913 53.8752ZM22.9581 41.0838C12.9629 41.0838 4.83332 32.9542 4.83332 22.959C4.83332 12.9637 12.9629 4.83414 22.9581 4.83414C32.9534 4.83414 41.083 12.9637 41.083 22.959C41.083 32.9542 32.9533 41.0838 22.9581 41.0838Z" fill="black"/>
</svg>
