<svg width="20" height="20" viewBox="0 0 58 58" fill="none" xmlns="http://www.w3.org/2000/svg">
<path d="M20.1031 42.4135C16.1707 42.4135 12.9719 45.6123 12.9719 49.5447C12.9719 53.477 16.1707 56.6758 20.1031 56.6758C24.0354 56.6758 27.2343 53.477 27.2343 49.5447C27.2343 45.6123 24.0354 42.4135 20.1031 42.4135ZM20.1031 52.6008C18.4181 52.6008 17.0469 51.2295 17.0469 49.5445C17.0469 47.8596 18.4181 46.4883 20.1031 46.4883C21.7887 46.4883 23.1593 47.8596 23.1593 49.5445C23.1593 51.2295 21.7881 52.6008 20.1031 52.6008Z" fill="black"/>
<path d="M42.9229 42.4135C38.9905 42.4135 35.7917 45.6123 35.7917 49.5447C35.7917 53.477 38.9905 56.6758 42.9229 56.6758C46.8552 56.6758 50.0541 53.477 50.0541 49.5447C50.0541 45.6123 46.8552 42.4135 42.9229 42.4135ZM42.9229 52.6008C41.2379 52.6008 39.8667 51.2295 39.8667 49.5445C39.8667 47.8596 41.2379 46.4883 42.9229 46.4883C44.6085 46.4883 45.9791 47.8596 45.9791 49.5445C45.9791 51.2295 44.6078 52.6008 42.9229 52.6008Z" fill="black"/>
<path d="M57.5676 15.2831C57.1819 14.7893 56.5896 14.5006 55.9627 14.5006H46.1828C45.0575 14.5006 44.1453 15.4128 44.1453 16.5381C44.1453 17.6634 45.0575 18.5756 46.1828 18.5756H53.3582L49.2764 35.0113H16.3154L12.7781 18.5749H19.8993V14.4999H11.901L9.93809 5.37884C9.73565 4.44019 8.90643 3.7699 7.94614 3.7699H2.03748C0.912144 3.7699 0 4.68205 0 5.80739C0 6.93273 0.912144 7.84487 2.03748 7.84487H6.30061L12.6779 37.4766C12.8804 38.4153 13.7096 39.0856 14.6699 39.0856H50.869C51.805 39.0856 52.6206 38.4471 52.846 37.5392L57.9397 17.0292C58.0912 16.4206 57.9533 15.7767 57.5676 15.2831Z" fill="black"/>
<path d="M33.0071 1.32426C24.6935 1.32426 17.9298 8.08797 17.9298 16.4016C17.9298 24.7152 24.6935 31.4789 33.0071 31.4789C41.3207 31.4789 48.0845 24.7152 48.0845 16.4016C48.0845 8.08797 41.3207 1.32426 33.0071 1.32426ZM33.0071 27.404C26.9402 27.404 22.0047 22.4678 22.0047 16.4016C22.0047 10.3354 26.9402 5.39923 33.0071 5.39923C39.0733 5.39923 44.0095 10.3354 44.0095 16.4016C44.0096 22.4678 39.0741 27.404 33.0071 27.404Z" fill="black"/>
<path d="M33.0071 10.0855C31.8818 10.0855 30.9696 10.9976 30.9696 12.123V20.6804C30.9696 21.8057 31.8818 22.7179 33.0071 22.7179C34.1325 22.7179 35.0446 21.8057 35.0446 20.6804V12.123C35.0446 10.9975 34.1326 10.0855 33.0071 10.0855Z" fill="black"/>
<path d="M37.2179 14.3641H28.7285C27.6031 14.3641 26.691 15.2763 26.691 16.4016C26.691 17.5269 27.6031 18.4391 28.7285 18.4391H37.2179C38.3433 18.4391 39.2554 17.5269 39.2554 16.4016C39.2554 15.2763 38.3434 14.3641 37.2179 14.3641Z" fill="black"/>
</svg>
