    <svg width="58" height="52" viewBox="0 0 58 52" xmlns="http://www.w3.org/2000/svg">
    <path fill="white" d="M28.9999 51.6013C28.1742 51.6013 27.3782 51.3022 26.7578 50.7588C24.4147 48.71 22.1557 46.7846 20.1627 45.0863L20.1525 45.0774C14.3093 40.0979 9.26338 35.7977 5.75255 31.5616C1.82798 26.8259 0 22.3358 0 17.4307C0 12.6649 1.63417 8.26819 4.60116 5.04986C7.60355 1.79347 11.7233 0 16.2027 0C19.5507 0 22.6168 1.05847 25.3157 3.14576C26.6777 4.19936 27.9123 5.48882 28.9999 6.99289C30.0881 5.48882 31.3222 4.19936 32.6847 3.14576C35.3835 1.05847 38.4496 0 41.7976 0C46.2766 0 50.3968 1.79347 53.3992 5.04986C56.3662 8.26819 57.9999 12.6649 57.9999 17.4307C57.9999 22.3358 56.1723 26.8259 52.2478 31.5612C48.737 35.7977 43.6915 40.0975 37.8491 45.0766C35.8526 46.7775 33.59 48.706 31.2417 50.7596C30.6217 51.3022 29.8252 51.6013 28.9999 51.6013ZM16.2027 3.39755C12.6835 3.39755 9.45056 4.80205 7.09865 7.35265C4.71178 9.94174 3.3971 13.5207 3.3971 17.4307C3.3971 21.5561 4.93038 25.2457 8.36819 29.3938C11.691 33.4033 16.6333 37.6151 22.3557 42.4919L22.3664 42.5007C24.3669 44.2057 26.6348 46.1386 28.9951 48.2024C31.3696 46.1346 33.6409 44.1986 35.6455 42.491C41.3675 37.6142 46.3094 33.4033 49.6321 29.3938C53.0695 25.2457 54.6028 21.5561 54.6028 17.4307C54.6028 13.5207 53.2881 9.94174 50.9012 7.35265C48.5498 4.80205 45.3164 3.39755 41.7976 3.39755C39.2196 3.39755 36.8526 4.21706 34.7627 5.83309C32.9002 7.27388 31.6028 9.09523 30.8421 10.3696C30.4509 11.025 29.7624 11.4162 28.9999 11.4162C28.2375 11.4162 27.549 11.025 27.1578 10.3696C26.3976 9.09523 25.1002 7.27388 23.2372 5.83309C21.1473 4.21706 18.7803 3.39755 16.2027 3.39755Z" fill="black"/>
    </svg>
