<svg width="58" height="58" viewBox="0 0 58 58" fill="white" xmlns="http://www.w3.org/2000/svg">
<path d="M55.5833 31.3665H2.41667C1.08266 31.3665 0 30.2839 0 28.9498C0 27.6158 1.08266 26.5332 2.41667 26.5332H55.5833C56.9173 26.5332 58 27.6158 58 28.9498C58 30.2839 56.9173 31.3665 55.5833 31.3665Z" fill="black"/>
<path d="M55.5833 12.8385H2.41667C1.08266 12.8385 0 11.7559 0 10.4219C0 9.08787 1.08266 8.00521 2.41667 8.00521H55.5833C56.9173 8.00521 58 9.08787 58 10.4219C58 11.7559 56.9173 12.8385 55.5833 12.8385Z" fill="black"/>
<path d="M55.5833 49.8939H2.41667C1.08266 49.8939 0 48.8112 0 47.4772C0 46.1432 1.08266 45.0606 2.41667 45.0606H55.5833C56.9173 45.0606 58 46.1432 58 47.4772C58 48.8112 56.9173 49.8939 55.5833 49.8939Z" fill="black"/>
</svg>
