<svg width="58" height="58" viewBox="0 0 58 58" fill="none" xmlns="http://www.w3.org/2000/svg">
<path d="M49.5062 37.4938C46.3475 34.3353 42.588 31.9971 38.4861 30.5816C42.8793 27.5558 45.7656 22.4918 45.7656 16.7656C45.7656 7.52108 38.2445 0 29 0C19.7555 0 12.2344 7.52108 12.2344 16.7656C12.2344 22.4918 15.1207 27.5558 19.5141 30.5816C15.4121 31.9971 11.6526 34.3353 8.49394 37.4938C3.01657 42.9713 0 50.2538 0 58H4.53125C4.53125 44.5079 15.5079 33.5312 29 33.5312C42.4921 33.5312 53.4688 44.5079 53.4688 58H58C58 50.2538 54.9834 42.9713 49.5062 37.4938ZM29 29C22.254 29 16.7656 23.5117 16.7656 16.7656C16.7656 10.0195 22.254 4.53125 29 4.53125C35.746 4.53125 41.2344 10.0195 41.2344 16.7656C41.2344 23.5117 35.746 29 29 29Z" fill="black"/>
</svg>
